<svg width="18" height="18" viewBox="0 0 18 18" fill="none" xmlns="http://www.w3.org/2000/svg">
<path fill-rule="evenodd" clip-rule="evenodd" d="M8.40978 4.52177C8.56648 4.52177 8.71677 4.45953 8.82757 4.34872C8.93838 4.23791 9.00063 4.08763 9.00063 3.93093C9.00063 3.77423 8.93838 3.62394 8.82757 3.51314C8.71677 3.40233 8.56648 3.34008 8.40978 3.34008C8.25308 3.34008 8.10279 3.40233 7.99199 3.51314C7.88118 3.62394 7.81893 3.77423 7.81893 3.93093C7.81893 4.08763 7.88118 4.23791 7.99199 4.34872C8.10279 4.45953 8.25308 4.52177 8.40978 4.52177ZM9.83195 4.33123C9.75075 4.61911 9.58409 4.87558 9.35401 5.06673C9.12393 5.25787 8.84126 5.37469 8.54337 5.40174C8.24548 5.42879 7.94639 5.3648 7.68564 5.21823C7.42489 5.07166 7.21477 4.84941 7.08304 4.58086C6.05817 5.01189 5.22429 5.7998 4.7359 6.7986C4.98765 6.9491 5.18892 7.17112 5.31408 7.43638C5.43924 7.70165 5.48263 7.99816 5.43872 8.28816C5.39481 8.57817 5.26559 8.84854 5.06752 9.06487C4.86944 9.28119 4.61147 9.43367 4.32644 9.5029C4.45791 10.3626 4.82866 11.144 5.3684 11.7765C5.60102 11.6563 5.86141 11.6001 6.1229 11.6136C6.38438 11.6272 6.63757 11.71 6.85652 11.8536C7.07547 11.9972 7.25232 12.1964 7.36895 12.4308C7.48558 12.6652 7.5378 12.9265 7.52026 13.1877C7.94183 13.3156 8.3894 13.3845 8.85291 13.3845C9.2086 13.3845 9.55454 13.344 9.88689 13.2672L9.90255 13.2636C10.6549 13.0866 11.3501 12.7217 11.9232 12.2031H8.85291C8.75573 12.2044 8.65929 12.1859 8.56956 12.1486C8.47983 12.1112 8.3987 12.0559 8.3312 11.9859C8.26132 11.9184 8.20603 11.8373 8.16874 11.7475C8.13144 11.6578 8.11293 11.5614 8.11436 11.4642V7.03287C8.11436 6.82962 8.18674 6.65591 8.3312 6.51115C8.39873 6.44128 8.47986 6.38599 8.56959 6.34869C8.65933 6.3114 8.75575 6.29289 8.85291 6.29431H12.6828C12.4681 5.96784 12.2128 5.67002 11.9229 5.40804C11.5573 5.07711 11.1406 4.80737 10.689 4.60922C10.4133 4.48851 10.1263 4.39549 9.83224 4.33152L9.83195 4.33123ZM13.7085 6.29431C13.2385 5.3892 12.5259 4.63268 11.6506 4.10936C11.0799 3.76838 10.4514 3.53506 9.79649 3.42103C9.68403 3.11606 9.47416 2.85669 9.19938 2.68306C8.92459 2.50944 8.60023 2.43126 8.27652 2.46064C7.95281 2.49001 7.64781 2.6253 7.40877 2.84554C7.16972 3.06579 7.00996 3.35871 6.95423 3.67893C6.26901 3.93367 5.64165 4.32285 5.10904 4.82359C4.57644 5.32434 4.14934 5.92653 3.85288 6.59476C3.5219 6.62269 3.20999 6.76137 2.96752 6.9884C2.72506 7.21543 2.56619 7.51756 2.51657 7.84599C2.46696 8.17443 2.52949 8.51 2.69407 8.79852C2.85865 9.08704 3.11567 9.31167 3.42363 9.43614C3.5501 10.5356 4.00869 11.5703 4.73826 12.4025C4.56712 12.7274 4.52318 13.1045 4.61502 13.4601C4.70686 13.8157 4.92789 14.1244 5.23499 14.3258C5.54209 14.5273 5.91322 14.6071 6.27599 14.5497C6.63876 14.4924 6.96714 14.3019 7.19707 14.0155C7.71938 14.1812 8.27566 14.2707 8.85291 14.2707C9.30103 14.2709 9.74748 14.2162 10.1823 14.108C11.349 13.8149 12.3866 13.1452 13.1342 12.2028H14.0228L15.4999 13.6799V7.03287C15.5013 6.93571 15.4828 6.83931 15.4455 6.74958C15.4082 6.65986 15.3529 6.57872 15.2831 6.51115C15.2156 6.44128 15.1344 6.38599 15.0447 6.34869C14.955 6.3114 14.8585 6.29289 14.7614 6.29431H13.7085ZM6.0464 13.6799C6.2031 13.6799 6.35338 13.6176 6.46419 13.5068C6.57499 13.396 6.63724 13.2457 6.63724 13.089C6.63724 12.9323 6.57499 12.7821 6.46419 12.6712C6.35338 12.5604 6.2031 12.4982 6.0464 12.4982C5.88969 12.4982 5.73941 12.5604 5.62861 12.6712C5.5178 12.7821 5.45555 12.9323 5.45555 13.089C5.45555 13.2457 5.5178 13.396 5.62861 13.5068C5.73941 13.6176 5.88969 13.6799 6.0464 13.6799ZM4.56928 8.06685C4.56928 8.22355 4.50703 8.37384 4.39623 8.48464C4.28542 8.59545 4.13514 8.6577 3.97844 8.6577C3.82173 8.6577 3.67145 8.59545 3.56064 8.48464C3.44984 8.37384 3.38759 8.22355 3.38759 8.06685C3.38759 7.91015 3.44984 7.75986 3.56064 7.64906C3.67145 7.53825 3.82173 7.476 3.97844 7.476C4.13514 7.476 4.28542 7.53825 4.39623 7.64906C4.50703 7.75986 4.56928 7.91015 4.56928 8.06685ZM14.3369 11.4642H8.85291V7.03287H14.7614V11.8796L14.3369 11.4642Z" fill="black"/>
</svg>
